<svg version="1.1" id="Layer_1" xmlns="http://www.w3.org/2000/svg" xmlns:xlink="http://www.w3.org/1999/xlink" x="0px"
	y="0px" width="100%" viewBox="0 0 387 139" enable-background="new 0 0 387 139" xml:space="preserve">
	<path fill="#FEFEFE" opacity="0.000000" stroke="none" d="
M251.000000,140.000000 
	C167.333359,140.000000 84.166710,140.000000 1.000045,140.000000 
	C1.000030,93.666695 1.000030,47.333397 1.000015,1.000069 
	C129.999939,1.000046 258.999878,1.000046 387.999878,1.000023 
	C387.999908,47.333263 387.999908,93.666527 387.999939,139.999893 
	C342.500000,140.000000 297.000000,140.000000 251.000000,140.000000 
M66.251617,72.760483 
	C65.740860,73.084084 65.230095,73.407684 64.050011,73.873383 
	C62.661449,74.554192 61.272881,75.235008 59.339256,76.051483 
	C58.900368,76.397820 58.461475,76.744156 57.343472,77.235390 
	C53.469582,79.158440 51.892727,81.914513 54.063545,86.885971 
	C55.672539,94.787537 57.121632,102.725769 58.923656,110.583061 
	C62.724522,127.155769 64.085815,127.911163 81.788918,123.947685 
	C83.547318,123.676933 85.305725,123.406174 87.773491,123.179550 
	C89.197449,122.489212 90.621399,121.798874 92.646469,121.005943 
	C93.475464,120.450966 94.304451,119.895988 95.782181,119.188835 
	C96.887383,118.458717 97.992592,117.728600 99.759880,116.822792 
	C105.213387,113.358391 110.666885,109.893982 116.766068,106.252197 
	C117.843430,105.477028 118.920799,104.701851 120.712318,103.699966 
	C121.461647,101.162392 123.201164,98.452553 122.794693,96.116043 
	C120.648331,83.778030 117.921761,71.541893 115.492157,59.251499 
	C114.946770,56.492634 113.365097,55.861038 110.878830,56.187431 
	C105.298080,56.920063 99.708153,57.582790 93.624992,57.737419 
	C92.431976,56.970203 91.238953,56.202988 89.384232,55.046642 
	C84.176414,54.752644 79.468765,55.496456 76.697380,61.582226 
	C76.802185,63.382122 76.906998,65.182014 76.368896,67.255341 
	C73.186897,69.108620 70.004898,70.961906 66.921974,72.916557 
	C66.921974,72.916557 66.882988,72.780281 66.251617,72.760483 
M47.586212,70.667740 
	C47.612549,69.761681 47.638882,68.855621 47.553486,67.022331 
	C47.462166,61.382351 47.601009,55.726494 47.213448,50.106945 
	C46.841362,44.711807 47.083168,40.177761 54.114017,39.905422 
	C55.027557,39.870045 55.975307,39.212814 56.801048,38.679310 
	C60.160007,36.509144 60.270164,33.650730 56.639973,31.898741 
	C53.845898,30.550274 53.161339,28.690876 52.626911,25.919537 
	C50.804714,16.470377 47.862980,14.421918 38.293930,15.160100 
	C37.153320,15.248089 35.993790,15.241222 34.852932,15.151868 
	C25.241970,14.399109 22.439375,16.362257 20.545414,25.943035 
	C19.997257,28.715944 19.227959,30.555933 16.487652,31.943089 
	C12.808264,33.805611 12.857594,36.622864 16.416584,38.634193 
	C18.539631,39.834015 21.176838,40.107292 23.347586,41.245777 
	C24.642412,41.924866 26.361074,43.456188 26.382729,44.632145 
	C26.520020,52.087105 26.236748,59.549812 25.311625,67.143776 
	C25.694334,68.819450 26.077044,70.495132 26.434725,73.084763 
	C26.337231,85.043037 26.268009,97.001640 26.130312,108.959450 
	C26.061472,114.937752 24.142197,119.972839 18.745577,123.296074 
	C17.802116,123.877060 17.345345,125.248375 16.663797,126.254684 
	C16.965769,126.678680 17.267740,127.102676 17.569714,127.526672 
	C21.752970,126.208191 26.064526,125.196632 30.094734,123.512009 
	C40.930183,118.982765 46.816387,110.756638 47.075275,98.918739 
	C47.278530,89.624832 47.136826,80.323380 47.586212,70.667740 
M136.109070,105.957588 
	C138.778259,105.417732 140.503525,102.155914 144.186462,104.273537 
	C152.609375,109.116547 161.559845,108.519287 170.127991,104.671051 
	C182.409393,99.155067 187.978775,84.645332 184.200562,69.234604 
	C181.684097,58.970337 175.161499,52.357510 165.808701,52.605118 
	C160.551010,52.744312 155.360611,55.425678 149.899811,57.032398 
	C149.899811,48.426994 149.899811,38.888863 149.899811,29.630161 
	C141.346100,30.974463 133.248947,32.247013 125.053795,33.534962 
	C130.071655,39.819321 130.071640,39.819321 130.071625,49.636517 
	C130.071609,66.136330 130.071625,82.636147 130.071625,99.135963 
	C130.071625,101.754082 130.071625,104.372200 130.071625,107.654594 
	C132.241196,107.046570 133.784653,106.614021 136.109070,105.957588 
M331.774597,106.954269 
	C333.267853,107.069778 334.761261,107.183159 336.254333,107.301109 
	C355.554321,108.825798 365.210815,100.680115 366.220795,81.491241 
	C366.736359,71.694962 366.629639,61.860886 366.624664,52.043987 
	C366.621246,45.290493 366.331360,38.549721 374.983124,36.521378 
	C375.045319,36.506798 375.042908,36.216694 375.141022,35.645844 
	C367.489868,35.645844 359.916840,35.645844 352.343842,35.645844 
	C362.579559,38.787914 362.030151,47.041584 362.205017,54.899231 
	C362.353180,61.554840 362.767181,68.222710 362.508453,74.863525 
	C362.296234,80.311050 361.844269,85.878708 360.463562,91.120491 
	C358.461304,98.721992 353.316833,101.608643 344.848602,101.083603 
	C337.609039,100.634750 334.203400,97.561348 332.642395,89.703316 
	C332.128204,87.114998 331.951416,84.425293 331.929962,81.779434 
	C331.838165,70.460815 331.892578,59.141090 331.829010,47.822132 
	C331.802765,43.148144 330.895203,38.138412 337.176270,36.442841 
	C337.227692,36.428967 337.123291,35.837978 337.096741,35.567902 
	C326.484985,35.567902 315.895630,35.567902 305.306305,35.567902 
	C312.952759,38.053776 310.867310,44.198097 310.922058,49.333267 
	C311.037323,60.151737 310.788422,70.978836 311.121552,81.789062 
	C311.552368,95.767021 317.664886,103.222725 331.774597,106.954269 
M249.198700,84.211075 
	C249.434845,83.006516 249.345139,81.595535 249.957336,80.629196 
	C256.340149,70.553886 263.092377,60.702213 269.173431,50.451160 
	C271.597351,46.365013 271.994232,41.396339 268.187073,37.423668 
	C264.145630,33.206524 259.101593,33.376896 253.400604,34.491756 
	C257.118805,53.679512 250.950851,70.646935 240.942978,87.837585 
	C251.279068,87.837585 259.646729,87.837585 268.372528,87.837585 
	C267.303223,94.304802 271.175110,101.378426 263.477234,105.514732 
	C273.352875,105.514732 283.228546,105.514732 293.104187,105.514732 
	C285.345490,101.000542 289.055817,94.092010 288.331909,87.739304 
	C291.468903,87.739304 294.113098,87.866447 296.732849,87.669197 
	C297.629852,87.601654 298.465637,86.721359 299.329407,86.212402 
	C298.453949,85.551414 297.623779,84.407631 296.694489,84.320473 
	C293.968750,84.064835 291.203583,84.229439 287.948792,84.229439 
	C287.948792,74.263191 287.948792,65.061752 287.948792,55.765236 
	C281.093628,58.209454 274.743591,60.473576 267.968933,62.889088 
	C267.968933,69.877426 267.968933,76.962692 267.968933,84.226646 
	C261.707123,84.226646 255.892929,84.226646 249.198700,84.211075 
M202.219864,97.176628 
	C200.297028,93.568489 198.374191,89.960358 196.451340,86.352226 
	C194.864700,91.317947 194.277313,95.881424 194.103104,100.460625 
	C194.061554,101.552856 195.141678,103.292557 196.142746,103.726364 
	C206.453537,108.194481 217.104462,109.279259 227.606766,104.832062 
	C237.861130,100.489868 239.929916,88.964470 231.968018,81.139679 
	C228.693634,77.921677 224.502762,75.650803 220.824539,72.824493 
	C217.943588,70.610825 214.837738,68.522133 212.516724,65.794991 
	C210.234253,63.113106 209.752747,59.490925 212.582077,56.730659 
	C215.412003,53.969822 219.128815,54.312767 221.535385,56.991734 
	C224.569931,60.369793 226.770538,64.504379 229.267014,68.354019 
	C230.039001,69.544411 230.602402,70.870049 231.261322,72.133766 
	C231.695389,72.004921 232.129471,71.876076 232.563553,71.747231 
	C233.038498,66.421425 233.513443,61.095612 233.993286,55.714939 
	C224.641647,51.909573 215.488129,51.070717 206.282608,53.842846 
	C193.315445,57.747753 189.920212,71.330383 199.512039,80.853531 
	C202.423965,83.744591 206.165268,85.784241 209.407883,88.363251 
	C212.121399,90.521454 215.279617,92.505035 217.063416,95.313766 
	C218.272064,97.216866 218.403519,101.062431 217.215927,102.827797 
	C216.278900,104.220711 212.175415,104.741463 210.232101,103.902802 
	C207.362488,102.664375 205.161942,99.875603 202.219864,97.176628 
z" />
	<path fill="#FEFEFE" opacity="1.000000" stroke="none" d="
M135.718597,106.069527 
	C133.784653,106.614021 132.241196,107.046570 130.071625,107.654594 
	C130.071625,104.372200 130.071625,101.754082 130.071625,99.135963 
	C130.071625,82.636147 130.071609,66.136330 130.071625,49.636517 
	C130.071640,39.819321 130.071655,39.819321 125.053795,33.534962 
	C133.248947,32.247013 141.346100,30.974463 149.899811,29.630161 
	C149.899811,38.888863 149.899811,48.426994 149.899811,57.032398 
	C155.360611,55.425678 160.551010,52.744312 165.808701,52.605118 
	C175.161499,52.357510 181.684097,58.970337 184.200562,69.234604 
	C187.978775,84.645332 182.409393,99.155067 170.127991,104.671051 
	C161.559845,108.519287 152.609375,109.116547 144.186462,104.273537 
	C140.503525,102.155914 138.778259,105.417732 135.718597,106.069527 
M157.212616,58.968632 
	C153.430237,58.871552 150.326508,60.278603 150.230927,64.325630 
	C149.971664,75.302177 149.853836,86.302856 150.369431,97.261536 
	C150.490601,99.837090 152.846329,103.728516 155.034302,104.467506 
	C158.724442,105.713837 160.168549,101.703102 161.178192,98.745583 
	C164.868484,87.935631 165.205063,76.865578 162.614304,65.827202 
	C162.036362,63.364799 159.581268,61.342983 157.212616,58.968632 
z" />
	<path fill="#FEFEFE" opacity="1.000000" stroke="none" d="
M26.092178,67.009964 
	C26.236748,59.549812 26.520020,52.087105 26.382729,44.632145 
	C26.361074,43.456188 24.642412,41.924866 23.347586,41.245777 
	C21.176838,40.107292 18.539631,39.834015 16.416584,38.634193 
	C12.857594,36.622864 12.808264,33.805611 16.487652,31.943089 
	C19.227959,30.555933 19.997257,28.715944 20.545414,25.943035 
	C22.439375,16.362257 25.241970,14.399109 34.852932,15.151868 
	C35.993790,15.241222 37.153320,15.248089 38.293930,15.160100 
	C47.862980,14.421918 50.804714,16.470377 52.626911,25.919537 
	C53.161339,28.690876 53.845898,30.550274 56.639973,31.898741 
	C60.270164,33.650730 60.160007,36.509144 56.801048,38.679310 
	C55.975307,39.212814 55.027557,39.870045 54.114017,39.905422 
	C47.083168,40.177761 46.841362,44.711807 47.213448,50.106945 
	C47.601009,55.726494 47.462166,61.382351 47.173203,67.490280 
	C43.584412,68.813797 40.375912,69.669350 36.620972,70.670624 
	C40.740231,75.379463 43.894562,71.069199 47.148365,71.025284 
	C47.136826,80.323380 47.278530,89.624832 47.075275,98.918739 
	C46.816387,110.756638 40.930183,118.982765 30.094734,123.512009 
	C26.064526,125.196632 21.752970,126.208191 17.569714,127.526672 
	C17.267740,127.102676 16.965769,126.678680 16.663797,126.254684 
	C17.345345,125.248375 17.802116,123.877060 18.745577,123.296074 
	C24.142197,119.972839 26.061472,114.937752 26.130312,108.959450 
	C26.268009,97.001640 26.337231,85.043037 26.824251,72.510498 
	C29.658792,72.065918 32.103806,72.195602 34.548820,72.325287 
	C34.549545,71.979683 34.550274,71.634079 34.550999,71.288475 
	C31.731392,69.862305 28.911785,68.436134 26.092178,67.009964 
M33.351360,78.373131 
	C32.856148,79.889664 32.360935,81.406197 31.425467,83.311523 
	C31.266859,83.868256 31.108252,84.424988 30.418510,85.459297 
	C29.171448,90.625618 33.143570,92.449196 36.840683,95.935204 
	C38.339909,93.959038 39.743042,92.499619 40.659889,90.780800 
	C41.429649,89.337708 41.632618,87.592285 42.013264,85.343979 
	C41.688503,84.557663 41.363743,83.771339 40.993965,82.304108 
	C40.344772,80.862701 39.695580,79.421303 39.018353,77.198021 
	C38.049217,76.459175 36.961929,75.028061 36.142773,75.167870 
	C35.247219,75.320724 34.599640,76.926399 33.351360,78.373131 
M31.851835,32.973545 
	C28.327688,32.296555 24.803541,31.619562 21.279394,30.942572 
	C21.675112,32.860229 22.904783,34.875996 24.203295,34.921360 
	C32.506863,35.211452 40.827839,35.179802 49.138096,35.009762 
	C52.204365,34.947021 52.386417,34.243740 51.600876,31.705025 
	C45.141994,32.150673 38.961067,32.577145 31.851835,32.973545 
z" />
	<path fill="#FEFEFE" opacity="1.000000" stroke="none" d="
M331.359497,106.878975 
	C317.664886,103.222725 311.552368,95.767021 311.121552,81.789062 
	C310.788422,70.978836 311.037323,60.151737 310.922058,49.333267 
	C310.867310,44.198097 312.952759,38.053776 305.306305,35.567902 
	C315.895630,35.567902 326.484985,35.567902 337.096741,35.567902 
	C337.123291,35.837978 337.227692,36.428967 337.176270,36.442841 
	C330.895203,38.138412 331.802765,43.148144 331.829010,47.822132 
	C331.892578,59.141090 331.838165,70.460815 331.929962,81.779434 
	C331.951416,84.425293 332.128204,87.114998 332.642395,89.703316 
	C334.203400,97.561348 337.609039,100.634750 344.848602,101.083603 
	C353.316833,101.608643 358.461304,98.721992 360.463562,91.120491 
	C361.844269,85.878708 362.296234,80.311050 362.508453,74.863525 
	C362.767181,68.222710 362.353180,61.554840 362.205017,54.899231 
	C362.030151,47.041584 362.579559,38.787914 352.343842,35.645844 
	C359.916840,35.645844 367.489868,35.645844 375.141022,35.645844 
	C375.042908,36.216694 375.045319,36.506798 374.983124,36.521378 
	C366.331360,38.549721 366.621246,45.290493 366.624664,52.043987 
	C366.629639,61.860886 366.736359,71.694962 366.220795,81.491241 
	C365.210815,100.680115 355.554321,108.825798 336.254333,107.301109 
	C334.761261,107.183159 333.267853,107.069778 331.359497,106.878975 
z" />
	<path fill="#FEFEFE" opacity="1.000000" stroke="none" d="
M249.638718,84.218857 
	C255.892929,84.226646 261.707123,84.226646 267.968933,84.226646 
	C267.968933,76.962692 267.968933,69.877426 267.968933,62.889088 
	C274.743591,60.473576 281.093628,58.209454 287.948792,55.765236 
	C287.948792,65.061752 287.948792,74.263191 287.948792,84.229439 
	C291.203583,84.229439 293.968750,84.064835 296.694489,84.320473 
	C297.623779,84.407631 298.453949,85.551414 299.329407,86.212402 
	C298.465637,86.721359 297.629852,87.601654 296.732849,87.669197 
	C294.113098,87.866447 291.468903,87.739304 288.331909,87.739304 
	C289.055817,94.092010 285.345490,101.000542 293.104187,105.514732 
	C283.228546,105.514732 273.352875,105.514732 263.477234,105.514732 
	C271.175110,101.378426 267.303223,94.304802 268.372528,87.837585 
	C259.646729,87.837585 251.279068,87.837585 240.942978,87.837585 
	C250.950851,70.646935 257.118805,53.679512 253.400604,34.491756 
	C259.101593,33.376896 264.145630,33.206524 268.187073,37.423668 
	C271.994232,41.396339 271.597351,46.365013 269.173431,50.451160 
	C263.092377,60.702213 256.340149,70.553886 249.957336,80.629196 
	C249.345139,81.595535 249.434845,83.006516 249.638718,84.218857 
z" />
	<path fill="#FEFEFE" opacity="1.000000" stroke="none" d="
M202.448166,97.461830 
	C205.161942,99.875603 207.362488,102.664375 210.232101,103.902802 
	C212.175415,104.741463 216.278900,104.220711 217.215927,102.827797 
	C218.403519,101.062431 218.272064,97.216866 217.063416,95.313766 
	C215.279617,92.505035 212.121399,90.521454 209.407883,88.363251 
	C206.165268,85.784241 202.423965,83.744591 199.512039,80.853531 
	C189.920212,71.330383 193.315445,57.747753 206.282608,53.842846 
	C215.488129,51.070717 224.641647,51.909573 233.993286,55.714939 
	C233.513443,61.095612 233.038498,66.421425 232.563553,71.747231 
	C232.129471,71.876076 231.695389,72.004921 231.261322,72.133766 
	C230.602402,70.870049 230.039001,69.544411 229.267014,68.354019 
	C226.770538,64.504379 224.569931,60.369793 221.535385,56.991734 
	C219.128815,54.312767 215.412003,53.969822 212.582077,56.730659 
	C209.752747,59.490925 210.234253,63.113106 212.516724,65.794991 
	C214.837738,68.522133 217.943588,70.610825 220.824539,72.824493 
	C224.502762,75.650803 228.693634,77.921677 231.968018,81.139679 
	C239.929916,88.964470 237.861130,100.489868 227.606766,104.832062 
	C217.104462,109.279259 206.453537,108.194481 196.142746,103.726364 
	C195.141678,103.292557 194.061554,101.552856 194.103104,100.460625 
	C194.277313,95.881424 194.864700,91.317947 196.451340,86.352226 
	C198.374191,89.960358 200.297028,93.568489 202.448166,97.461830 
z" />
	<path fill="#B6571B" opacity="1.000000" stroke="none" d="
M80.999466,123.881683 
	C64.085815,127.911163 62.724522,127.155769 58.923656,110.583061 
	C57.121632,102.725769 55.672539,94.787537 54.430641,86.407944 
	C55.847977,84.619400 56.898216,83.308884 58.298935,81.993668 
	C59.266747,81.631348 59.884075,81.273727 60.501408,80.916115 
	C59.664520,80.611061 58.827633,80.306007 57.973686,79.637039 
	C57.978607,78.545578 58.000595,77.818039 58.022587,77.090492 
	C58.461475,76.744156 58.900368,76.397820 59.878830,76.269684 
	C65.945702,76.334213 71.473000,76.180550 76.999886,76.256004 
	C76.999466,76.485123 76.997955,76.943886 76.641632,76.964401 
	C74.848412,77.657013 73.411522,78.329117 71.644852,79.051857 
	C71.524620,80.067436 71.734146,81.032387 72.115631,82.304672 
	C73.543968,83.114014 74.800362,83.616020 76.043495,84.517563 
	C77.022263,88.614647 78.014275,92.312187 79.003143,96.004936 
	C79.000000,96.000145 78.994087,95.990410 78.992706,96.395172 
	C79.996628,99.870193 81.001930,102.940453 82.003616,106.005356 
	C82.000000,106.000000 81.993713,105.988762 81.991196,106.330658 
	C82.328438,107.452316 82.668198,108.232086 83.003944,109.005920 
	C82.999924,108.999985 82.993095,108.987297 82.989326,109.411148 
	C83.339027,112.541786 83.692497,115.248573 83.737411,118.116478 
	C82.619064,120.145615 81.809265,122.013649 80.999466,123.881683 
M67.586250,81.516899 
	C67.586250,81.516899 67.477127,81.581627 67.586250,81.516899 
z" />
	<path fill="#B5561A" opacity="1.000000" stroke="none" d="
M116.120392,106.429581 
	C110.666885,109.893982 105.213387,113.358391 99.406456,116.491180 
	C99.023026,114.752724 98.993019,113.345879 99.014252,111.601227 
	C101.899551,108.295830 101.050323,106.669647 97.092758,105.757492 
	C95.648788,99.897934 94.310547,94.417847 93.013931,88.620987 
	C93.429932,87.050194 93.804298,85.796188 94.178673,84.542191 
	C93.109451,84.676826 92.040222,84.811462 90.977905,84.560287 
	C90.025299,80.778625 89.065781,77.382782 88.471428,73.987083 
	C94.565971,70.989052 100.295364,67.990860 106.296623,65.227318 
	C107.379021,68.307716 108.189545,71.153473 108.689613,74.145447 
	C107.694534,75.355583 107.009911,76.419502 106.325287,77.483421 
	C107.551903,77.656456 108.778511,77.829491 110.014877,78.398781 
	C111.329506,84.615318 112.634377,90.435593 113.715378,96.494011 
	C112.747559,97.834450 112.003609,98.936752 111.259651,100.039047 
	C112.445312,100.316330 113.630966,100.593620 114.871262,101.276489 
	C115.324066,103.264580 115.722229,104.847076 116.120392,106.429581 
z" />
	<path fill="#B5591C" opacity="1.000000" stroke="none" d="
M81.394188,123.914688 
	C81.809265,122.013649 82.619064,120.145615 84.011017,117.869003 
	C84.059814,114.636047 83.526459,111.811668 82.993095,108.987297 
	C82.993095,108.987297 82.999924,108.999985 83.001358,108.665070 
	C82.666428,107.549690 82.330070,106.769226 81.993713,105.988762 
	C81.993713,105.988762 82.000000,106.000000 82.004585,105.595993 
	C81.004143,102.124802 79.999115,99.057602 78.994087,95.990410 
	C78.994087,95.990410 79.000000,96.000145 79.007050,95.575104 
	C78.657356,91.459404 78.300613,87.768745 78.244354,83.916176 
	C79.660378,81.883583 80.775917,80.012894 82.279091,78.087601 
	C84.082977,80.795708 85.499229,83.558411 86.689590,86.545944 
	C85.687981,87.722191 84.912270,88.673592 84.136566,89.625000 
	C85.390320,90.057869 86.644081,90.490730 88.065613,91.273056 
	C89.805222,97.479980 91.377045,103.337440 92.741508,109.435089 
	C91.814163,110.632477 91.094185,111.589668 90.374199,112.546860 
	C91.518272,112.988785 92.662346,113.430710 93.903481,114.264084 
	C94.378181,116.217354 94.755814,117.779175 95.133446,119.341003 
	C94.304451,119.895988 93.475464,120.450966 92.210983,120.733459 
	C90.117386,119.385429 88.459274,118.309868 85.574440,116.438583 
	C86.304733,119.721596 86.684425,121.428513 87.064125,123.135422 
	C85.305725,123.406174 83.547318,123.676933 81.394188,123.914688 
z" />
	<path fill="#B86126" opacity="1.000000" stroke="none" d="
M94.121964,58.273972 
	C99.708153,57.582790 105.298080,56.920063 110.878830,56.187431 
	C113.365097,55.861038 114.946770,56.492634 115.492157,59.251499 
	C117.921761,71.541893 120.648331,83.778030 122.794693,96.116043 
	C123.201164,98.452553 121.461647,101.162392 120.335320,103.438416 
	C119.639702,101.721390 119.321083,100.265915 119.050209,98.506805 
	C120.451927,96.390068 122.034554,94.519882 117.894836,93.686996 
	C116.493271,87.760597 115.254784,82.184959 114.056503,76.275116 
	C114.565361,74.120445 116.595695,71.963837 112.752930,70.760086 
	C111.702957,67.695892 111.154411,64.798271 110.116089,62.088314 
	C108.608498,58.153606 100.105873,57.497971 96.973663,60.969788 
	C96.543053,60.976906 96.370781,60.977661 96.069717,60.714668 
	C95.334602,59.725269 94.728287,58.999622 94.121964,58.273972 
z" />
	<path fill="#773605" opacity="1.000000" stroke="none" d="
M86.915482,86.321114 
	C85.499229,83.558411 84.082977,80.795708 82.068237,77.947037 
	C81.279053,77.586784 81.088356,77.312500 81.081009,76.817818 
	C79.843002,76.407242 78.421654,76.217064 77.000305,76.026886 
	C71.473000,76.180550 65.945702,76.334213 60.151360,76.201843 
	C61.272881,75.235008 62.661449,74.554192 64.713020,73.862000 
	C65.878349,73.493843 66.380669,73.137062 66.882988,72.780281 
	C66.882988,72.780281 66.921974,72.916557 67.343826,72.943855 
	C71.853310,72.983009 75.940941,72.994858 80.446541,73.011108 
	C83.278435,73.339310 85.692352,73.663116 88.106270,73.986931 
	C89.065781,77.382782 90.025299,80.778625 90.666313,84.738693 
	C89.203697,85.642319 88.059593,85.981720 86.915482,86.321114 
z" />
	<path fill="#B86028" opacity="1.000000" stroke="none" d="
M77.050568,60.990746 
	C79.468765,55.496456 84.176414,54.752644 89.659943,55.710777 
	C89.897690,57.003639 89.859734,57.632366 89.439682,58.214092 
	C85.440651,58.107681 82.454193,59.025642 81.167755,63.043987 
	C79.589554,62.350544 78.320061,61.670647 77.050568,60.990746 
z" />
	<path fill="#B9642C" opacity="1.000000" stroke="none" d="
M80.028564,73.006714 
	C75.940941,72.994858 71.853310,72.983009 67.294296,72.893173 
	C70.004898,70.961906 73.186897,69.108620 76.940598,67.332329 
	C78.329529,68.347008 79.146774,69.284691 79.977646,70.567413 
	C80.003708,71.610542 80.016136,72.308624 80.028564,73.006714 
z" />
	<path fill="#643008" opacity="1.000000" stroke="none" d="
M79.964012,70.222382 
	C79.146774,69.284691 78.329529,68.347008 77.262047,67.195618 
	C76.906998,65.182014 76.802185,63.382122 76.873978,61.286484 
	C78.320061,61.670647 79.589554,62.350544 81.180817,63.411629 
	C81.630905,64.001808 81.759239,64.210808 81.876640,64.808243 
	C81.231804,66.871910 80.597908,68.547142 79.964012,70.222382 
z" />
	<path fill="#352625" opacity="1.000000" stroke="none" d="
M47.367287,70.846512 
	C43.894562,71.069199 40.740231,75.379463 36.620972,70.670624 
	C40.375912,69.669350 43.584412,68.813797 47.229065,67.953903 
	C47.638882,68.855621 47.612549,69.761681 47.367287,70.846512 
z" />
	<path fill="#CF9252" opacity="1.000000" stroke="none" d="
M57.683029,77.162941 
	C58.000595,77.818039 57.978607,78.545578 57.952293,79.969528 
	C57.948132,81.110085 57.948292,81.554230 57.948452,81.998375 
	C56.898216,83.308884 55.847977,84.619400 54.470703,85.994324 
	C51.892727,81.914513 53.469582,79.158440 57.683029,77.162941 
z" />
	<path fill="#5E5858" opacity="1.000000" stroke="none" d="
M25.701902,67.076874 
	C28.911785,68.436134 31.731392,69.862305 34.550999,71.288475 
	C34.550274,71.634079 34.549545,71.979683 34.548820,72.325287 
	C32.103806,72.195602 29.658792,72.065918 26.836765,72.053520 
	C26.077044,70.495132 25.694334,68.819450 25.701902,67.076874 
z" />
	<path fill="#783A09" opacity="1.000000" stroke="none" d="
M95.457809,119.264923 
	C94.755814,117.779175 94.378181,116.217354 94.114433,113.970848 
	C95.806549,112.837128 97.384781,112.388077 98.963013,111.939026 
	C98.993019,113.345879 99.023026,114.752724 99.075417,116.579025 
	C97.992592,117.728600 96.887383,118.458717 95.457809,119.264923 
z" />
	<path fill="#783A09" opacity="1.000000" stroke="none" d="
M119.002464,98.810440 
	C119.321083,100.265915 119.639702,101.721390 119.978241,103.551773 
	C118.920799,104.701851 117.843430,105.477028 116.443230,106.340889 
	C115.722229,104.847076 115.324066,103.264580 115.099419,101.028313 
	C116.516121,99.853180 117.759293,99.331810 119.002464,98.810440 
z" />
	<path fill="#68350D" opacity="1.000000" stroke="none" d="
M89.821777,58.261093 
	C89.859734,57.632366 89.897690,57.003639 89.990791,55.905342 
	C91.238953,56.202988 92.431976,56.970203 93.873474,58.005695 
	C94.728287,58.999622 95.334602,59.725269 95.759125,61.013939 
	C92.945389,61.684845 90.313446,61.792728 87.875282,61.644936 
	C88.923744,60.498070 92.104729,60.910305 89.821777,58.261093 
z" />
	<path fill="#CC8840" opacity="1.000000" stroke="none" d="
M87.418808,123.157486 
	C86.684425,121.428513 86.304733,119.721596 85.574440,116.438583 
	C88.459274,118.309868 90.117386,119.385429 91.910416,120.784760 
	C90.621399,121.798874 89.197449,122.489212 87.418808,123.157486 
z" />
	<path fill="#B9642C" opacity="1.000000" stroke="none" d="
M66.567307,72.770386 
	C66.380669,73.137062 65.878349,73.493843 65.047684,73.790955 
	C65.230095,73.407684 65.740860,73.084084 66.567307,72.770386 
z" />
	<path fill="#F9F9F9" opacity="0.000000" stroke="none" d="
M157.601517,59.043472 
	C159.581268,61.342983 162.036362,63.364799 162.614304,65.827202 
	C165.205063,76.865578 164.868484,87.935631 161.178192,98.745583 
	C160.168549,101.703102 158.724442,105.713837 155.034302,104.467506 
	C152.846329,103.728516 150.490601,99.837090 150.369431,97.261536 
	C149.853836,86.302856 149.971664,75.302177 150.230927,64.325630 
	C150.326508,60.278603 153.430237,58.871552 157.601517,59.043472 
z" />
	<path fill="#00000" opacity="1.000000" stroke="none" d="
M32.315990,32.988579 
	C38.961067,32.577145 45.141994,32.150673 51.600876,31.705025 
	C52.386417,34.243740 52.204365,34.947021 49.138096,35.009762 
	C40.827839,35.179802 32.506863,35.211452 24.203295,34.921360 
	C22.904783,34.875996 21.675112,32.860229 21.279394,30.942572 
	C24.803541,31.619562 28.327688,32.296555 32.315990,32.988579 
z" />
	<path fill="#442D2C" opacity="1.000000" stroke="none" d="
M42.086529,85.980721 
	C41.632618,87.592285 41.429649,89.337708 40.659889,90.780800 
	C39.743042,92.499619 38.339909,93.959038 36.840683,95.935204 
	C33.143570,92.449196 29.171448,90.625618 30.995941,85.367645 
	C34.298058,88.396797 37.117622,90.487450 40.676376,86.272972 
	C40.920052,85.984398 41.606171,86.069435 42.086529,85.980721 
z" />
	<path fill="#543B39" opacity="1.000000" stroke="none" d="
M42.049896,85.662354 
	C41.606171,86.069435 40.920052,85.984398 40.676376,86.272972 
	C37.117622,90.487450 34.298058,88.396797 31.261509,85.128860 
	C31.108252,84.424988 31.266859,83.868256 32.045734,83.104729 
	C35.456997,82.926964 38.247990,82.955994 41.038979,82.985023 
	C41.363743,83.771339 41.688503,84.557663 42.049896,85.662354 
z" />
	<path fill="#442D2C" opacity="1.000000" stroke="none" d="
M41.016472,82.644562 
	C38.247990,82.955994 35.456997,82.926964 32.265862,82.910332 
	C32.360935,81.406197 32.856148,79.889664 34.034523,78.172089 
	C36.160583,77.973999 37.603481,77.976944 39.046387,77.979897 
	C39.695580,79.421303 40.344772,80.862701 41.016472,82.644562 
z" />
	<path fill="#372322" opacity="1.000000" stroke="none" d="
M39.032368,77.588959 
	C37.603481,77.976944 36.160583,77.973999 34.280830,77.934952 
	C34.599640,76.926399 35.247219,75.320724 36.142773,75.167870 
	C36.961929,75.028061 38.049217,76.459175 39.032368,77.588959 
z" />
	<path fill="#C77F36" opacity="1.000000" stroke="none" d="
M80.897659,77.038208 
	C81.088356,77.312500 81.279053,77.586784 81.680603,78.001633 
	C80.775917,80.012894 79.660378,81.883583 78.002922,83.897598 
	C77.461006,84.040924 76.976891,84.006577 76.967537,83.750534 
	C76.838692,83.257614 76.719200,83.020721 76.599716,82.783829 
	C76.434204,83.207207 76.268700,83.630577 76.085175,84.064850 
	C76.067154,84.075737 76.056747,84.118027 76.056747,84.118027 
	C74.800362,83.616020 73.543968,83.114014 72.288689,82.065872 
	C72.931877,81.185120 73.573959,80.850510 74.190796,80.529053 
	C73.426582,80.002205 72.700607,79.501709 71.974625,79.001221 
	C73.411522,78.329117 74.848412,77.657013 77.032822,76.983826 
	C78.819450,77.001228 79.858559,77.019722 80.897659,77.038208 
M78.596558,79.521347 
	C78.596558,79.521347 78.481026,79.588562 78.596558,79.521347 
z" />
	<path fill="#9B4214" opacity="1.000000" stroke="none" d="
M76.976891,84.006577 
	C76.976891,84.006577 77.461006,84.040924 77.702438,84.059502 
	C78.300613,87.768745 78.657356,91.459404 79.010193,95.579895 
	C78.014275,92.312187 77.022263,88.614647 76.043495,84.517563 
	C76.056747,84.118027 76.067154,84.075737 76.302948,84.050369 
	C76.538734,84.025009 76.976891,84.006577 76.976891,84.006577 
z" />
	<path fill="#9B4214" opacity="1.000000" stroke="none" d="
M78.992706,96.395172 
	C79.999115,99.057602 81.004143,102.124802 82.008194,105.601357 
	C81.001930,102.940453 79.996628,99.870193 78.992706,96.395172 
z" />
	<path fill="#9B4214" opacity="1.000000" stroke="none" d="
M82.989326,109.411148 
	C83.526459,111.811668 84.059814,114.636047 84.319565,117.707893 
	C83.692497,115.248573 83.339027,112.541786 82.989326,109.411148 
z" />
	<path fill="#B5591C" opacity="1.000000" stroke="none" d="
M71.644852,79.051857 
	C72.700607,79.501709 73.426582,80.002205 74.190796,80.529053 
	C73.573959,80.850510 72.931877,81.185120 72.116737,81.758530 
	C71.734146,81.032387 71.524620,80.067436 71.644852,79.051857 
z" />
	<path fill="#B5591C" opacity="1.000000" stroke="none" d="
M58.298935,81.993668 
	C57.948292,81.554230 57.948132,81.110085 57.969360,80.333443 
	C58.827633,80.306007 59.664520,80.611061 60.501408,80.916115 
	C59.884075,81.273727 59.266747,81.631348 58.298935,81.993668 
z" />
	<path fill="#B5591C" opacity="1.000000" stroke="none" d="
M81.081009,76.817810 
	C79.858559,77.019722 78.819450,77.001228 77.389153,76.963310 
	C76.997955,76.943886 76.999466,76.485123 76.999886,76.256004 
	C78.421654,76.217064 79.843002,76.407242 81.081009,76.817810 
z" />
	<path fill="#9B4214" opacity="1.000000" stroke="none" d="
M81.991196,106.330658 
	C82.330070,106.769226 82.666428,107.549690 83.005371,108.671005 
	C82.668198,108.232086 82.328438,107.452316 81.991196,106.330658 
z" />
	<path fill="#B5591C" opacity="1.000000" stroke="none" d="
M67.531693,81.549263 
	C67.477127,81.581627 67.586250,81.516899 67.531693,81.549263 
z" />
	<path fill="#B0541B" opacity="1.000000" stroke="none" d="
M87.681503,61.900612 
	C90.313446,61.792728 92.945389,61.684845 95.887917,61.277687 
	C96.370781,60.977661 96.543053,60.976906 97.306061,61.132015 
	C100.365990,63.049610 104.931320,60.212631 106.024750,64.992676 
	C100.295364,67.990860 94.565971,70.989052 88.471428,73.987083 
	C85.692352,73.663116 83.278435,73.339310 80.446548,73.011108 
	C80.016136,72.308624 80.003708,71.610542 79.977646,70.567413 
	C80.597908,68.547142 81.231804,66.871910 82.220169,64.692490 
	C84.276932,63.425739 85.979218,62.663177 87.681503,61.900612 
z" />
	<path fill="#743503" opacity="1.000000" stroke="none" d="
M92.948868,109.194901 
	C91.377045,103.337440 89.805222,97.479980 88.288750,91.005814 
	C89.886833,89.905334 91.429565,89.421547 92.972305,88.937759 
	C94.310547,94.417847 95.648788,99.897934 97.006073,106.101501 
	C95.666367,107.614960 94.307625,108.404930 92.948868,109.194901 
z" />
	<path fill="#753504" opacity="1.000000" stroke="none" d="
M106.296623,65.227318 
	C104.931320,60.212631 100.365990,63.049610 97.564392,61.125652 
	C100.105873,57.497971 108.608498,58.153606 110.116089,62.088314 
	C111.154411,64.798271 111.702957,67.695892 112.594612,71.049927 
	C111.479240,72.393227 110.239662,73.196228 109.000076,73.999229 
	C108.189545,71.153473 107.379021,68.307716 106.296623,65.227318 
z" />
	<path fill="#743503" opacity="1.000000" stroke="none" d="
M114.016304,76.609314 
	C115.254784,82.184959 116.493271,87.760597 117.711487,93.984085 
	C116.440559,95.173233 115.189903,95.714554 113.939247,96.255875 
	C112.634377,90.435593 111.329506,84.615318 110.326767,78.230560 
	C111.758026,77.313820 112.887169,76.961571 114.016304,76.609314 
z" />
	<path fill="#C77F36" opacity="1.000000" stroke="none" d="
M92.741516,109.435089 
	C94.307625,108.404930 95.666367,107.614960 97.111801,106.480988 
	C101.050323,106.669647 101.899551,108.295830 99.014252,111.601234 
	C97.384781,112.388077 95.806549,112.837128 94.017365,113.579407 
	C92.662346,113.430710 91.518272,112.988785 90.374199,112.546860 
	C91.094185,111.589668 91.814163,110.632477 92.741516,109.435089 
z" />
	<path fill="#C88238" opacity="1.000000" stroke="none" d="
M93.013931,88.620979 
	C91.429565,89.421547 89.886833,89.905334 88.120972,90.656357 
	C86.644081,90.490730 85.390320,90.057869 84.136566,89.625000 
	C84.912270,88.673592 85.687981,87.722191 86.689590,86.545944 
	C88.059593,85.981720 89.203697,85.642319 90.659409,85.124512 
	C92.040222,84.811462 93.109451,84.676826 94.178673,84.542191 
	C93.804298,85.796188 93.429932,87.050194 93.013931,88.620979 
z" />
	<path fill="#C77F36" opacity="1.000000" stroke="none" d="
M114.056503,76.275116 
	C112.887169,76.961571 111.758026,77.313820 110.317009,77.834297 
	C108.778511,77.829491 107.551903,77.656456 106.325287,77.483421 
	C107.009911,76.419502 107.694534,75.355583 108.689613,74.145447 
	C110.239662,73.196228 111.479240,72.393227 112.877151,71.300385 
	C116.595695,71.963837 114.565361,74.120445 114.056503,76.275116 
z" />
	<path fill="#C88238" opacity="1.000000" stroke="none" d="
M113.715378,96.494019 
	C115.189903,95.714554 116.440559,95.173233 117.874573,94.334831 
	C122.034554,94.519882 120.451927,96.390068 119.050209,98.506805 
	C117.759293,99.331810 116.516121,99.853180 115.044785,100.622726 
	C113.630966,100.593620 112.445312,100.316330 111.259651,100.039047 
	C112.003609,98.936752 112.747559,97.834450 113.715378,96.494019 
z" />
	<path fill="#EFE3DB" opacity="0.000000" stroke="none" d="
M87.875282,61.644936 
	C85.979218,62.663177 84.276932,63.425739 82.231110,64.304062 
	C81.759239,64.210808 81.630905,64.001808 81.489517,63.425171 
	C82.454193,59.025642 85.440651,58.107681 89.439682,58.214092 
	C92.104729,60.910305 88.923744,60.498070 87.875282,61.644936 
z" />
	<path fill="#B5591C" opacity="1.000000" stroke="none" d="
M76.967537,83.750534 
	C76.976891,84.006577 76.538734,84.025009 76.320961,84.039482 
	C76.268700,83.630577 76.434204,83.207207 76.599716,82.783829 
	C76.719200,83.020721 76.838692,83.257614 76.967537,83.750534 
z" />
	<path fill="#B5591C" opacity="1.000000" stroke="none" d="
M78.538788,79.554955 
	C78.481026,79.588562 78.596558,79.521347 78.538788,79.554955 
z" />
</svg>